<svg xmlns="http://www.w3.org/2000/svg" viewBox="0 0 580 283">
  <linearGradient id="a" gradientUnits="userSpaceOnUse" x1="24.5648" y1="145.4492" x2="552.2661" y2="145.4492">
    <stop offset="0" stop-color="#3a9efd"/>
    <stop offset="1" stop-color="#9700ff"/>
  </linearGradient>
  <linearGradient id="b" gradientUnits="userSpaceOnUse" x1="24.0648" y1="145.4492" x2="552.7661" y2="145.4492">
    <stop offset="0" stop-color="#3a9efd"/>
    <stop offset="1" stop-color="#9700ff"/>
  </linearGradient>
  <path fill="url(#a)" stroke="url(#b)" stroke-miterlimit="10" d="M168.7 260.3h-8.2v-44.8h9.5l12.9 22.5h.2l12.9-22.5h9.3v44.8h-8.2v-30.9h-.1l-13.7 23.4h-.6L169 229.2h-.2v31.1zm57.9-44.8h10.8l15.3 44.2v.6h-9.4l-3-9.4h-17.1l-3 9.4h-9v-.6l15.4-44.2zm5.1 9l-5.9 18.7h12.1l-5.9-18.7h-.3zm35.3 35.8h-8.4v-44.8h9.9l17.8 31.1h.2v-31.1h8.5v44.8h-10l-17.8-30.9h-.2v30.9zm49.2-44.8H327l15.3 44.2v.6h-9.4l-3-9.4h-17.1l-3 9.4h-9v-.6l15.4-44.2zm5.1 9l-5.9 18.7h12.1l-5.9-18.7h-.3zm44.1 36.4c-6.6 0-11.6-2.1-15.2-6.3-3.5-4.3-5.3-9.8-5.3-16.6 0-6.9 1.8-12.5 5.3-16.6 3.5-4.3 8.6-6.4 15.2-6.4 5.4 0 9.8 1.5 13.1 4.5 3.4 3 5.3 6.8 5.7 11.3h-8.7c-.4-2.3-1.4-4.2-3.1-5.7-1.7-1.4-4-2.1-6.9-2.1-3.8 0-6.7 1.3-8.7 4-2 2.6-3 6.3-3 11.1s1 8.4 3 11c2 2.6 4.9 3.9 8.7 3.9 3 0 5.4-.8 7.3-2.4 1.8-1.6 2.9-3.8 3.3-6.4h-9.3v-7.8h18v4.7c0 6-1.8 10.8-5.3 14.5-3.7 3.5-8.4 5.3-14.1 5.3zm56.7-.6h-30.2v-44.8h30.2v7.9h-21.7v9.9h19.7v7.8h-19.7v11.4h21.7v7.8zm32.7-17.4l10.8 16.8v.6h-9.8l-10-16.4h-7.3v16.4H430v-44.8h19c4.4 0 8 1.3 10.6 4 2.7 2.7 4 6 4 10 0 3.2-.8 6-2.3 8.3-1.6 2.4-3.8 4.1-6.5 5.1zm-6.2-19.5h-10.1v12.7h10.1c2 0 3.6-.6 4.6-1.8 1.1-1.2 1.6-2.8 1.6-4.8 0-1.8-.6-3.3-1.6-4.5-1.1-1-2.7-1.6-4.6-1.6zm-277.8-27.7h-11.5v-60.2h11.5v60.2zm24.6 0h-11.5v-60.2h40.3V146h-28.9v14.9h26.2v10.6h-26.2v24.2zm72.8-23.4l14.6 22.5v.9h-13.2l-13.5-22h-9.9v22h-11.5v-60.2h25.7c6 0 10.7 1.8 14.2 5.4 3.6 3.6 5.4 8.1 5.4 13.4 0 4.3-1 8-3.1 11.2-2.2 3.1-5 5.4-8.7 6.8zm-8.4-26.3h-13.6v17.1h13.6c2.7 0 4.8-.8 6.2-2.4 1.4-1.6 2.1-3.7 2.1-6.4 0-2.5-.7-4.5-2.2-6s-3.5-2.3-6.1-2.3zm46.2-10.5h14.6l20.6 59.3v.9h-12.6l-4-12.6h-22.9l-4 12.6h-12v-.9l20.3-59.3zm6.8 12l-7.9 25.1h16.2l-7.9-25.1h-.4zm47.2 48.2h-11v-60.2h12.7l17.4 30.2h.3l17.4-30.2h12.5v60.2h-11v-41.5h-.3l-18.4 31.5h-.8L360.4 154h-.4v41.7zm103.2 0h-40.6v-60.2h40.6V146H434v13.3h26.5v10.5H434v15.3h29.1v10.6zM142.4 234c-10.7 0-19.4-8.7-19.4-19.3V61.3c0-10.7 8.7-19.3 19.4-19.3h242.1c10.7 0 19.4 8.7 19.4 19.3V111h12V61.3c0-17.3-14.1-31.3-31.4-31.3H142.4C125.1 30 111 44.1 111 61.3v153.4c0 17.3 14.1 31.3 31.4 31.3v-12zm-52.5-41.9L41 143.2c-3.2-3.2-3.2-8.3 0-11.4l48.9-48.9L80 73l-49 48.9c-8.6 8.6-8.6 22.6 0 31.2L80 202l9.9-9.9zm455.9-39c8.6-8.6 8.6-22.6 0-31.2l-49-49-9.9 9.9 49 49c3.1 3.1 3.1 8.2 0 11.3l-49 49 9.9 9.9 49-48.9zM145 57c-3.9 0-7 3.1-7 7s3.1 7 7 7 7-3.1 7-7-3.1-7-7-7zm23 0c-3.9 0-7 3.1-7 7s3.1 7 7 7 7-3.1 7-7-3.1-7-7-7zm23 0c-3.9 0-7 3.1-7 7s3.1 7 7 7 7-3.1 7-7-3.1-7-7-7zm219 28H117v11h293V85z"/>
</svg>
